<?xml version="1.0" encoding="UTF-8"?>
<svg id="Layer_2" xmlns="http://www.w3.org/2000/svg" version="1.1" viewBox="0 0 49.34 49.5">
  <!-- Generator: Adobe Illustrator 29.0.0, SVG Export Plug-In . SVG Version: 2.1.0 Build 186)  -->
  <defs>
    <style>
      .st0 {
        fill: #06ab54;
      }

      .st0, .st1, .st2 {
        stroke: #fff;
        stroke-miterlimit: 10;
      }

      .st0, .st2 {
        stroke-width: 1.5px;
      }

      .st1 {
        fill: #0aab52;
      }

      .st2 {
        fill: none;
      }
    </style>
  </defs>
  <ellipse class="st0" cx="24.67" cy="24.75" rx="23.92" ry="24"/>
  <path class="st2" d="M12.98,3.81c7.91,3.17,21.03,10.25,29.48,26.07,1.19,2.23,2.2,4.46,3.05,6.65"/>
  <path class="st2" d="M41.2,42.09c-9.16-2.78-24.32-8.97-34.1-22.82-1.38-1.95-2.54-3.9-3.53-5.82"/>
  <path class="st2" d="M42.28,8.51c-2.82,8.31-9.37,22.19-25.15,31.75-2.22,1.35-4.46,2.5-6.66,3.5"/>
  <path class="st2" d="M5.83,39.36c2.89-8.74,9.33-23.23,23.74-32.57,2.03-1.31,4.06-2.43,6.06-3.37"/>
  <ellipse class="st1" cx="24.67" cy="10.41" rx="1.99" ry="2"/>
  <ellipse class="st1" cx="12.45" cy="24.96" rx="1.99" ry="2"/>
  <ellipse class="st1" cx="24.67" cy="34.54" rx="1.99" ry="2"/>
</svg>