<?xml version="1.0" encoding="utf-8"?>
<!-- Generator: Adobe Illustrator 28.0.0, SVG Export Plug-In . SVG Version: 6.00 Build 0)  -->
<svg version="1.1" xmlns="http://www.w3.org/2000/svg" xmlns:xlink="http://www.w3.org/1999/xlink" x="0px" y="0px"
	 viewBox="0 0 186.19 49.5" style="enable-background:new 0 0 186.19 49.5;" xml:space="preserve">
<style type="text/css">
	.st0{fill:#06AB54;}
	.st1{fill:#06AB54;stroke:#FFFFFF;stroke-width:1.5;stroke-miterlimit:10;}
	.st2{fill:none;stroke:#FFFFFF;stroke-width:1.5;stroke-miterlimit:10;}
	.st3{fill:#0AAB52;stroke:#FFFFFF;stroke-miterlimit:10;}
</style>
<g id="Layer_1">
</g>
<g id="Layer_2">
	<g>
		<path class="st0" d="M77.58,32.4H65.13l-2.59,6.95h-5.26L68.9,8.56h5.26l11.62,30.8h-5.61L77.58,32.4z M66.84,27.83h9.03
			L71.4,15.16L66.84,27.83z"/>
		<path d="M96.57,27.21l-7.94-11.18h5.44l5.66,7.83l5.57-7.83h5.26l-7.85,11l8.29,12.32h-5.52l-5.92-9.06l-6.01,9.06h-5.35
			L96.57,27.21z" fill="#fff"/>
		<path d="M124.15,39.84c-1.55,0-3.01-0.24-4.39-0.73c-1.37-0.48-2.58-1.22-3.62-2.2c-1.04-0.98-1.86-2.22-2.48-3.72
			c-0.61-1.5-0.92-3.26-0.92-5.28v-0.88c0-1.94,0.29-3.62,0.88-5.06c0.58-1.44,1.38-2.63,2.39-3.59c1.01-0.95,2.17-1.66,3.49-2.13
			c1.32-0.47,2.72-0.7,4.21-0.7c3.54,0,6.25,0.95,8.13,2.86s2.83,4.63,2.83,8.18v2.46h-17.01c0.03,1.2,0.23,2.22,0.59,3.06
			c0.37,0.84,0.85,1.51,1.45,2.02c0.6,0.51,1.29,0.89,2.06,1.12c0.77,0.23,1.57,0.35,2.39,0.35c1.67,0,2.89-0.26,3.66-0.79
			c0.77-0.53,1.31-1.22,1.6-2.07h4.82c-0.47,2.32-1.62,4.08-3.44,5.28C128.96,39.24,126.75,39.84,124.15,39.84z M123.93,19.78
			c-0.82,0-1.6,0.1-2.35,0.31c-0.75,0.21-1.4,0.54-1.97,0.99c-0.57,0.46-1.03,1.04-1.38,1.76c-0.35,0.72-0.54,1.59-0.57,2.62h12.19
			c-0.03-1.08-0.2-1.99-0.5-2.73c-0.31-0.73-0.72-1.32-1.25-1.76s-1.15-0.75-1.86-0.92C125.51,19.86,124.75,19.78,123.93,19.78z" fill="#fff"/>
		<path d="M146.95,39.58c-1.26,0-2.34-0.13-3.25-0.4c-0.91-0.26-1.66-0.7-2.26-1.3c-0.6-0.6-1.04-1.39-1.32-2.38
			c-0.28-0.98-0.42-2.18-0.42-3.59V8.56h4.82v23.01c0,1.44,0.23,2.43,0.7,2.97c0.47,0.54,1.33,0.81,2.59,0.81
			c0.32,0,0.6-0.01,0.83-0.02c0.23-0.01,0.47-0.04,0.7-0.07v4.18c-0.23,0.06-0.61,0.1-1.14,0.11
			C147.69,39.57,147.27,39.58,146.95,39.58z" fill="#fff"/>
		<path d="M156.6,13.4c-0.91,0-1.64-0.29-2.21-0.86c-0.57-0.57-0.85-1.31-0.85-2.22c0-0.91,0.29-1.65,0.85-2.22
			c0.57-0.57,1.31-0.86,2.21-0.86c0.91,0,1.64,0.29,2.21,0.86c0.57,0.57,0.86,1.31,0.86,2.22c0,0.91-0.29,1.65-0.86,2.22
			C158.24,13.11,157.5,13.4,156.6,13.4z M154.18,16.04h4.82v23.32h-4.82V16.04z" fill="#fff"/>
		<path d="M171.77,27.21l-7.94-11.18h5.44l5.66,7.83l5.57-7.83h5.26l-7.85,11l8.29,12.32h-5.52l-5.92-9.06l-6.01,9.06h-5.35
			L171.77,27.21z" fill="#fff"/>
	</g>
	<ellipse class="st1" cx="24.67" cy="24.75" rx="23.92" ry="24"/>
	<path class="st2" d="M12.98,3.81C20.89,6.98,34,14.06,42.46,29.88c1.19,2.23,2.2,4.46,3.05,6.65"/>
	<path class="st2" d="M41.2,42.09c-9.16-2.78-24.32-8.97-34.1-22.82c-1.38-1.95-2.54-3.9-3.53-5.82"/>
	<path class="st2" d="M42.28,8.51c-2.82,8.31-9.37,22.19-25.15,31.75c-2.22,1.35-4.46,2.5-6.66,3.5"/>
	<path class="st2" d="M5.83,39.36c2.89-8.74,9.33-23.23,23.74-32.57c2.03-1.31,4.06-2.43,6.06-3.37"/>
	<ellipse class="st3" cx="24.67" cy="10.41" rx="1.99" ry="2"/>
	<ellipse class="st3" cx="12.45" cy="24.96" rx="1.99" ry="2"/>
	<ellipse class="st3" cx="24.67" cy="34.54" rx="1.99" ry="2"/>
</g>
</svg>
