<svg width="20" height="16" viewBox="0 0 24 21" fill="none" xmlns="http://www.w3.org/2000/svg">
<path d="M11.9817 4.99977C10.6069 5.02377 9.46242 3.91857 9.43842 2.54378C9.41389 1.138 10.5196 0.0245291 11.8944 0.000532068C13.2692 -0.023465 14.4131 1.05073 14.4377 2.45652C14.4617 3.83131 13.3565 4.97577 11.9817 4.99977ZM1.99618 4.14191C3.09002 4.12282 3.98069 5.01341 3.99979 6.10724C4.01942 7.23207 3.15982 8.12221 2.06599 8.1413C0.941163 8.16094 0.0200301 7.30188 0.000396191 6.17705C-0.0186967 5.08322 0.871353 4.16154 1.99618 4.14191ZM21.9931 3.79286C23.087 3.77377 23.9776 4.66436 23.9967 5.75819C24.0164 6.88302 23.1568 7.77316 22.0629 7.79225C20.9381 7.81189 20.017 6.95283 19.9974 5.828C19.9783 4.73417 20.8683 3.8125 21.9931 3.79286ZM4.42492 17.9146L2.611 8.8819C3.10928 8.77919 3.57331 8.49005 3.94279 8.17055C4.99 9.09042 6.31861 9.97336 7.56842 9.95155C9.06819 9.92537 10.2466 7.59145 11.0567 5.64001C11.3393 5.72909 11.6849 5.81707 11.9978 5.81161C12.3108 5.80615 12.6521 5.70618 12.9324 5.60727C13.8101 7.53025 15.0693 9.82062 16.5691 9.79444C17.8189 9.77263 19.1158 8.84385 20.1303 7.888C20.5107 8.19441 20.9846 8.46718 21.4861 8.55244L19.9885 17.643L4.42792 17.9146L4.42492 17.9146ZM4.0946 18.7015L20.3421 18.4179L20.3688 19.9487L4.12132 20.2323L4.0946 18.7015Z" fill="#00AB55"/>
</svg>
